<?xml version="1.0" standalone="no"?>
<!DOCTYPE svg PUBLIC "-//W3C//DTD SVG 20010904//EN"
 "http://www.w3.org/TR/2001/REC-SVG-20010904/DTD/svg10.dtd">
<svg version="1.0" xmlns="http://www.w3.org/2000/svg"
 width="980.000000pt" height="980.000000pt" viewBox="0 0 980.000000 980.000000"
 preserveAspectRatio="xMidYMid meet">

<g transform="translate(0.000000,980.000000) scale(0.100000,-0.100000)"
fill="#000000" stroke="none">
<path d="M4560 9789 c-1035 -75 -2004 -466 -2800 -1128 -142 -118 -411 -380
-534 -521 -866 -985 -1301 -2259 -1215 -3555 91 -1396 759 -2664 1864 -3539
681 -539 1532 -896 2400 -1005 1496 -189 2973 304 4039 1348 420 412 728 835
980 1345 785 1590 647 3490 -361 4947 -290 420 -685 832 -1088 1134 -726 545
-1533 861 -2445 960 -174 19 -664 27 -840 14z m579 -469 c441 -26 872 -113
1267 -256 1388 -502 2443 -1676 2793 -3104 90 -369 124 -658 124 -1060 0 -402
-34 -691 -124 -1060 -306 -1249 -1162 -2321 -2318 -2899 -1238 -621 -2704
-624 -3941 -10 -1065 529 -1866 1448 -2240 2569 -156 467 -223 889 -223 1400
0 307 13 481 59 750 123 726 439 1429 901 2008 401 501 899 906 1471 1196 684
346 1469 510 2231 466z"/>
<path d="M4770 7813 c-242 -26 -539 -102 -810 -208 -112 -44 -339 -141 -347
-149 -4 -4 237 -539 245 -548 4 -3 75 22 157 56 264 110 487 179 702 217 173
31 414 32 553 2 324 -69 527 -253 606 -548 16 -57 19 -105 19 -260 -1 -248
-27 -386 -106 -553 -68 -142 -253 -348 -544 -605 -381 -336 -548 -540 -623
-763 -51 -150 -82 -381 -82 -611 l0 -133 279 0 278 0 6 153 c9 243 55 386 172
532 76 95 246 268 488 493 535 500 696 729 777 1101 59 272 51 629 -21 872
-153 522 -589 864 -1202 944 -108 14 -446 19 -547 8z"/>
<path d="M4730 3049 c-195 -29 -312 -132 -357 -316 -23 -93 -23 -313 0 -406
46 -185 162 -302 337 -338 87 -18 283 -7 353 20 118 46 198 133 243 265 23 69
28 102 32 223 8 278 -57 427 -224 509 -93 45 -251 63 -384 43z"/>
</g>
</svg>
